{
  "accessors": [
    {
      "bufferView": 2,
      "componentType": 5126,
      "count": 223,
      "max": [
        4.262110233306885,
        18.967510223388672,
        86.07723999023438
      ],
      "min": [
        -4.190164566040039,
        10.43426513671875,
        -3.7594675177388126e-06
      ],
      "type": "VEC3"
    },
    {
      "bufferView": 2,
      "byteOffset": 2676,
      "componentType": 5126,
      "count": 223,
      "max": [
        1.0,
        0.9923643469810486,
        0.9997528195381165
      ],
      "min": [
        -1.0,
        -0.9908663630485535,
        -0.9102604985237122
      ],
      "type": "VEC3"
    },
    {
      "bufferView": 1,
      "componentType": 5126,
      "count": 223,
      "max": [
        0.41400325298309326,
        0.9979999661445618
      ],
      "min": [
        0.0020000000949949026,
        0.0020000000949949026
      ],
      "type": "VEC2"
    },
    {
      "bufferView": 0,
      "componentType": 5125,
      "count": 966,
      "type": "SCALAR"
    }
  ],
  "asset": {
    "extras": {
      "author": "Soroush Shokouhi (https://sketchfab.com/SoRoUsH24)",
      "license": "CC-BY-4.0 (http://creativecommons.org/licenses/by/4.0/)",
      "source": "https://sketchfab.com/3d-models/cigarette-08ec2ff5d829436c955f4b5e8e0e47a7",
      "title": "Cigarette"
    },
    "generator": "Sketchfab-12.68.0",
    "version": "2.0"
  },
  "bufferViews": [
    {
      "buffer": 0,
      "byteLength": 3864,
      "name": "floatBufferViews",
      "target": 34963
    },
    {
      "buffer": 0,
      "byteLength": 1784,
      "byteOffset": 3864,
      "byteStride": 8,
      "name": "floatBufferViews",
      "target": 34962
    },
    {
      "buffer": 0,
      "byteLength": 5352,
      "byteOffset": 5648,
      "byteStride": 12,
      "name": "floatBufferViews",
      "target": 34962
    }
  ],
  "buffers": [
    {
      "byteLength": 11000,
      "uri": "scene.bin"
    }
  ],
  "images": [
    {
      "uri": "textures/Material_106_baseColor.png"
    }
  ],
  "materials": [
    {
      "doubleSided": true,
      "name": "Material_106",
      "pbrMetallicRoughness": {
        "baseColorFactor": [
          0.7556515209553168,
          0.7556515209553168,
          0.7556515209553168,
          1.0
        ],
        "baseColorTexture": {
          "index": 0
        },
        "metallicFactor": 0.0,
        "roughnessFactor": 0.0
      }
    }
  ],
  "meshes": [
    {
      "name": "Cylinder001_Material #106_0",
      "primitives": [
        {
          "attributes": {
            "NORMAL": 1,
            "POSITION": 0,
            "TEXCOORD_0": 2
          },
          "indices": 3,
          "material": 0,
          "mode": 4
        }
      ]
    }
  ],
  "nodes": [
    {
      "children": [
        1
      ],
      "matrix": [
        0.06295417249202728,
        0.0,
        0.0,
        0.0,
        0.0,
        1.3978634359374472e-17,
        -0.06295417249202728,
        0.0,
        0.0,
        0.06295417249202728,
        1.3978634359374472e-17,
        0.0,
        0.0,
        0.0,
        0.0,
        1.0
      ],
      "name": "Sketchfab_model"
    },
    {
      "children": [
        2
      ],
      "matrix": [
        1.0,
        0.0,
        0.0,
        0.0,
        0.0,
        0.0,
        1.0,
        0.0,
        0.0,
        -1.0,
        0.0,
        0.0,
        0.0,
        0.0,
        0.0,
        1.0
      ],
      "name": "b0ed03421d0645178aa7ecb5334571b4.fbx"
    },
    {
      "children": [
        3
      ],
      "name": "RootNode"
    },
    {
      "children": [
        4
      ],
      "matrix": [
        0.7071067811865475,
        0.7071067811865477,
        4.329780963457767e-17,
        0.0,
        -0.7071067811865384,
        0.7071067811865381,
        1.6292068159434225e-07,
        0.0,
        1.152023187202776e-07,
        -1.1520231878150991e-07,
        0.9999999999999867,
        0.0,
        10.499000549316406,
        -10.506233215332031,
        -41.498321533203125,
        1.0
      ],
      "name": "Cylinder001"
    },
    {
      "mesh": 0,
      "name": "Cylinder001_Material #106_0"
    }
  ],
  "samplers": [
    {
      "magFilter": 9729,
      "minFilter": 9987,
      "wrapS": 10497,
      "wrapT": 10497
    }
  ],
  "scene": 0,
  "scenes": [
    {
      "name": "Sketchfab_Scene",
      "nodes": [
        0
      ]
    }
  ],
  "textures": [
    {
      "sampler": 0,
      "source": 0
    }
  ]
}
