{
  "accessors": [
    {
      "bufferView": 1,
      "componentType": 5126,
      "count": 54276,
      "max": [
        5.1774678230285645,
        9.644968032836914,
        2.4339540004730225
      ],
      "min": [
        0.14398300647735596,
        1.3536850214004517,
        -5.416069030761719
      ],
      "type": "VEC3"
    },
    {
      "bufferView": 1,
      "byteOffset": 651312,
      "componentType": 5126,
      "count": 54276,
      "max": [
        0.9999983906745911,
        0.9991450905799866,
        0.9999919533729553
      ],
      "min": [
        -0.9999855160713196,
        -0.9999784827232361,
        -0.9995647072792053
      ],
      "type": "VEC3"
    },
    {
      "bufferView": 2,
      "componentType": 5126,
      "count": 54276,
      "max": [
        0.9960784316062927,
        0.9019607901573181,
        0.8784313797950745,
        1.0
      ],
      "min": [
        0.0,
        0.0,
        0.0,
        1.0
      ],
      "type": "VEC4"
    },
    {
      "bufferView": 0,
      "componentType": 5125,
      "count": 323424,
      "type": "SCALAR"
    }
  ],
  "asset": {
    "extras": {
      "author": "miriamalghanim (https://sketchfab.com/miriamalghanim)",
      "license": "CC-BY-4.0 (http://creativecommons.org/licenses/by/4.0/)",
      "source": "https://sketchfab.com/3d-models/soda-can-608514c9154f4075924bd85351079437",
      "title": "Soda Can"
    },
    "generator": "Sketchfab-12.68.0",
    "version": "2.0"
  },
  "bufferViews": [
    {
      "buffer": 0,
      "byteLength": 1293696,
      "name": "floatBufferViews",
      "target": 34963
    },
    {
      "buffer": 0,
      "byteLength": 1302624,
      "byteOffset": 1293696,
      "byteStride": 12,
      "name": "floatBufferViews",
      "target": 34962
    },
    {
      "buffer": 0,
      "byteLength": 868416,
      "byteOffset": 2596320,
      "byteStride": 16,
      "name": "floatBufferViews",
      "target": 34962
    }
  ],
  "buffers": [
    {
      "byteLength": 3464736,
      "uri": "scene.bin"
    }
  ],
  "materials": [
    {
      "doubleSided": true,
      "name": "Solid",
      "pbrMetallicRoughness": {
        "metallicFactor": 0.0,
        "roughnessFactor": 0.6
      }
    }
  ],
  "meshes": [
    {
      "name": "Object_0",
      "primitives": [
        {
          "attributes": {
            "COLOR_0": 2,
            "NORMAL": 1,
            "POSITION": 0
          },
          "indices": 3,
          "material": 0,
          "mode": 4
        }
      ]
    }
  ],
  "nodes": [
    {
      "children": [
        1
      ],
      "matrix": [
        1.0,
        0.0,
        0.0,
        0.0,
        0.0,
        2.220446049250313e-16,
        -1.0,
        0.0,
        0.0,
        1.0,
        2.220446049250313e-16,
        0.0,
        0.0,
        0.0,
        0.0,
        1.0
      ],
      "name": "Sketchfab_model"
    },
    {
      "children": [
        2
      ],
      "name": "Soda Can.obj.cleaner.materialmerger.gles"
    },
    {
      "mesh": 0,
      "name": "Object_2"
    }
  ],
  "scene": 0,
  "scenes": [
    {
      "name": "Sketchfab_Scene",
      "nodes": [
        0
      ]
    }
  ]
}
