{
  "accessors": [
    {
      "bufferView": 2,
      "componentType": 5126,
      "count": 28666,
      "max": [
        0.060402438044548035,
        0.021329648792743683,
        0.05818531662225723
      ],
      "min": [
        -0.060402438044548035,
        -0.021329648792743683,
        -0.05818532034754753
      ],
      "type": "VEC3"
    },
    {
      "bufferView": 2,
      "byteOffset": 343992,
      "componentType": 5126,
      "count": 28666,
      "max": [
        0.9990323781967163,
        0.9999921321868896,
        0.9999387860298157
      ],
      "min": [
        -0.9999493360519409,
        -0.9960718750953674,
        -0.999937891960144
      ],
      "type": "VEC3"
    },
    {
      "bufferView": 3,
      "componentType": 5126,
      "count": 28666,
      "max": [
        0.9999269247055054,
        0.999927282333374,
        0.9999049305915833,
        1.0
      ],
      "min": [
        -0.9999561905860901,
        -0.9999845027923584,
        -0.9999172687530518,
        -1.0
      ],
      "type": "VEC4"
    },
    {
      "bufferView": 1,
      "componentType": 5126,
      "count": 28666,
      "max": [
        0.9952681660652161,
        0.9999294877052307
      ],
      "min": [
        7.651646592421457e-05,
        0.00010762926831375808
      ],
      "type": "VEC2"
    },
    {
      "bufferView": 1,
      "byteOffset": 229328,
      "componentType": 5126,
      "count": 28666,
      "max": [
        0.9952681660652161,
        0.9999294877052307
      ],
      "min": [
        7.651646592421457e-05,
        0.00010762926831375808
      ],
      "type": "VEC2"
    },
    {
      "bufferView": 1,
      "byteOffset": 458656,
      "componentType": 5126,
      "count": 28666,
      "max": [
        0.9952681660652161,
        0.9999294877052307
      ],
      "min": [
        7.651646592421457e-05,
        0.00010762926831375808
      ],
      "type": "VEC2"
    },
    {
      "bufferView": 0,
      "componentType": 5125,
      "count": 150000,
      "type": "SCALAR"
    }
  ],
  "asset": {
    "extras": {
      "author": "Don B (https://sketchfab.com/nomomo)",
      "license": "CC-BY-NC-SA-4.0 (http://creativecommons.org/licenses/by-nc-sa/4.0/)",
      "source": "https://sketchfab.com/3d-models/soda-can-art-020f20e5150a45cbbeeb64581129a9f1",
      "title": "Soda can ARt"
    },
    "generator": "Sketchfab-12.82.3",
    "version": "2.0"
  },
  "bufferViews": [
    {
      "buffer": 0,
      "byteLength": 600000,
      "name": "floatBufferViews",
      "target": 34963
    },
    {
      "buffer": 0,
      "byteLength": 687984,
      "byteOffset": 600000,
      "byteStride": 8,
      "name": "floatBufferViews",
      "target": 34962
    },
    {
      "buffer": 0,
      "byteLength": 687984,
      "byteOffset": 1287984,
      "byteStride": 12,
      "name": "floatBufferViews",
      "target": 34962
    },
    {
      "buffer": 0,
      "byteLength": 458656,
      "byteOffset": 1975968,
      "byteStride": 16,
      "name": "floatBufferViews",
      "target": 34962
    }
  ],
  "buffers": [
    {
      "byteLength": 2434624,
      "uri": "scene.bin"
    }
  ],
  "images": [
    {
      "uri": "textures/material_0_baseColor.jpeg"
    },
    {
      "uri": "textures/material_0_metallicRoughness.png"
    },
    {
      "uri": "textures/material_0_normal.jpeg"
    }
  ],
  "materials": [
    {
      "name": "material_0",
      "normalTexture": {
        "index": 2
      },
      "occlusionTexture": {
        "index": 1
      },
      "pbrMetallicRoughness": {
        "baseColorTexture": {
          "index": 0
        },
        "metallicFactor": 0.0,
        "metallicRoughnessTexture": {
          "index": 1
        }
      }
    }
  ],
  "meshes": [
    {
      "name": "Object_0",
      "primitives": [
        {
          "attributes": {
            "NORMAL": 1,
            "POSITION": 0,
            "TANGENT": 2,
            "TEXCOORD_0": 3,
            "TEXCOORD_1": 4,
            "TEXCOORD_2": 5
          },
          "indices": 6,
          "material": 0,
          "mode": 4
        }
      ]
    }
  ],
  "nodes": [
    {
      "children": [
        1
      ],
      "matrix": [
        1.0,
        0.0,
        0.0,
        0.0,
        0.0,
        2.220446049250313e-16,
        -1.0,
        0.0,
        0.0,
        1.0,
        2.220446049250313e-16,
        0.0,
        0.0,
        0.0,
        0.0,
        1.0
      ],
      "name": "Sketchfab_model"
    },
    {
      "children": [
        2
      ],
      "name": "root"
    },
    {
      "children": [
        3
      ],
      "matrix": [
        1.0,
        0.0,
        0.0,
        0.0,
        0.0,
        2.220446049250313e-16,
        1.0,
        0.0,
        0.0,
        -1.0,
        2.220446049250313e-16,
        0.0,
        0.0,
        0.0,
        0.0,
        1.0
      ],
      "name": "GLTF_SceneRootNode"
    },
    {
      "children": [
        4
      ],
      "name": "_0"
    },
    {
      "mesh": 0,
      "name": "Object_4"
    }
  ],
  "samplers": [
    {
      "magFilter": 9729,
      "minFilter": 9987,
      "wrapS": 10497,
      "wrapT": 10497
    }
  ],
  "scene": 0,
  "scenes": [
    {
      "name": "Sketchfab_Scene",
      "nodes": [
        0
      ]
    }
  ],
  "textures": [
    {
      "sampler": 0,
      "source": 0
    },
    {
      "sampler": 0,
      "source": 1
    },
    {
      "sampler": 0,
      "source": 2
    }
  ]
}
